<svg xmlns="http://www.w3.org/2000/svg" width="62" height="59" viewBox="0 0 62 59">
  <metadata><?xpacket begin="﻿" id="W5M0MpCehiHzreSzNTczkc9d"?>
<x:xmpmeta xmlns:x="adobe:ns:meta/" x:xmptk="Adobe XMP Core 5.6-c138 79.159824, 2016/09/14-01:09:01        ">
   <rdf:RDF xmlns:rdf="http://www.w3.org/1999/02/22-rdf-syntax-ns#">
      <rdf:Description rdf:about=""/>
   </rdf:RDF>
</x:xmpmeta>
                                                                                                    
                                                                                                    
                                                                                                    
                                                                                                    
                                                                                                    
                                                                                                    
                                                                                                    
                                                                                                    
                                                                                                    
                                                                                                    
                                                                                                    
                                                                                                    
                                                                                                    
                                                                                                    
                                                                                                    
                                                                                                    
                                                                                                    
                                                                                                    
                                                                                                    
                                                                                                    
                           
<?xpacket end="w"?></metadata>
<defs>
    <style>
      .cls-1 {
        fill: #1f98d4;
        fill-rule: evenodd;
      }
    </style>
  </defs>
  <path class="cls-1" d="M303.253,1622.24l-5.243-3.79a1.815,1.815,0,0,0-1.338-.3,1.745,1.745,0,0,0-1.15.76l-3.467,5.18a1.789,1.789,0,0,0,1.461,2.8,1.765,1.765,0,0,0,1.465-.79l0.73-1.09c0.014,0.35.054,0.69,0.054,1.04a25.452,25.452,0,0,1-20.053,24.94,1.8,1.8,0,0,0-1.378,2.12,1.77,1.77,0,0,0,1.73,1.43,2.147,2.147,0,0,0,.356-0.03,29.043,29.043,0,0,0,22.883-28.46c0-.79-0.061-1.57-0.123-2.35l2.021,1.46a1.763,1.763,0,0,0,2.466-.42A1.806,1.806,0,0,0,303.253,1622.24Zm-41.975,23.11a1.765,1.765,0,0,0-2.318-.95,1.8,1.8,0,0,0-.943,2.35l0.7,1.67a25.656,25.656,0,0,1-11.378-31.87,1.8,1.8,0,0,0-.98-2.33,1.761,1.761,0,0,0-2.3.99,29.234,29.234,0,0,0,13.347,36.54l-1.994.79a1.81,1.81,0,0,0-1,2.33,1.774,1.774,0,0,0,1.646,1.13,1.652,1.652,0,0,0,.65-0.12l5.987-2.4a1.737,1.737,0,0,0,.98-0.97,1.81,1.81,0,0,0,0-1.39Zm29.549-34.47a1.737,1.737,0,0,0,2.474.37,1.811,1.811,0,0,0,.366-2.51,28.686,28.686,0,0,0-23.019-11.75,28.118,28.118,0,0,0-16.711,5.49l0.242-1.94a1.783,1.783,0,0,0-1.532-2,1.762,1.762,0,0,0-1.978,1.55l-0.808,6.48a1.619,1.619,0,0,0,.012.17c0,0.04.006,0.07,0.007,0.1a1.73,1.73,0,0,0,.116.6,0.167,0.167,0,0,1,.008.02,2.019,2.019,0,0,0,.226.45,1.824,1.824,0,0,0,.729.52c0.016,0,.032.01,0.048,0.01a2.114,2.114,0,0,0,.427.14l6.139,0.64a1.123,1.123,0,0,0,.183.01,1.791,1.791,0,0,0,.179-3.57l-2.012-.22a24.693,24.693,0,0,1,14.725-4.86A25.131,25.131,0,0,1,290.827,1610.88Z" transform="translate(-242 -1597)"/>
</svg>
