<svg xmlns="http://www.w3.org/2000/svg" width="242.5" height="43">

    <g id="text" fill="#ffffff" transform="translate(-29.8,-404.4)">

        <path d="m 82.6,431.5 v -15.4 h 3.8 v 15.3 c 0,3 2.3,4.7 5.2,4.7 2.9,0 5.2,-1.7 5.2,-4.7 v -15.3 h 3.8 v 15.4 c 0,5.2 -4,8.1 -9,8.1 -4.9,0 -9,-2.9 -9,-8.1 z" />

        <path d="m 117.4,439.3 v -9.4 c 0,-2.5 -1.6,-4 -3.7,-4 -2.2,0 -4,1.8 -4,4.3 v 9.1 H 106 V 428 c 0,-1.9 -0.1,-2.4 -1.7,-2.3 v -2.3 c 2.3,-0.4 5,-0.6 5,2.5 0.9,-2 3.3,-2.8 5.4,-2.8 4.3,0 6.3,3 6.3,6.9 v 9.4 h -3.6 z" />

        <path d="m 127.4,416.3 c 1.1,0 2.2,0.7 2.2,2.1 0,1.4 -1.1,2.1 -2.1,2.2 -1.1,0 -2.2,-0.7 -2.2,-2.2 -0.1,-1.4 1,-2.1 2.1,-2.1 z m 1.7,23 h -3.6 v -15.8 h 3.6 z" />

        <path d="m 144.7,415.9 c 4.5,0 9.2,2.5 10.5,7.7 h -3.7 c -1.2,-2.9 -3.7,-4.2 -6.8,-4.2 -4.7,0 -7.9,3.4 -7.9,8.4 0,4.6 3.1,8.3 7.9,8.3 3.2,0 5.9,-1.6 6.9,-4.6 h 3.7 c -1.2,5.7 -5.9,8.1 -10.6,8.1 -6.3,0 -11.7,-4.3 -11.7,-11.8 -0.1,-7.5 5.4,-11.9 11.7,-11.9 z" />

        <path d="m 163.4,439.6 c -2.9,0 -5.7,-1.9 -5.7,-5 -0.1,-3.8 2.7,-5.6 6.2,-5.6 1.6,0 3.3,0.4 4.7,1.2 v -1.6 c 0,-4.2 -7.2,-2.8 -9.2,-1.8 l -0.5,-2.6 c 1.6,-0.8 3.8,-1.3 5.9,-1.3 3.9,0 7.3,1.4 7.3,5.8 v 6.3 c 0,1.5 -0.1,2.4 1.7,2.3 l 0.1,2.1 c -2.5,0.4 -4.5,0.4 -4.6,-2.7 -1.1,2 -3.7,2.9 -5.9,2.9 z m 5.2,-7.1 c -1.2,-0.7 -2.7,-1.1 -4.1,-1.1 -1.8,0 -3.2,1.1 -3.2,3 0,1.6 1.5,2.3 2.9,2.3 1.9,0 4.1,-0.9 4.5,-2.9 v -1.3 z" />

        <path d="m 179.5,434.6 c 0.1,1.7 1.9,2.4 3.6,2.4 1.8,0 3.7,-0.5 3.8,-2.4 0,-1.5 -1.5,-1.9 -3.6,-2.1 -3.3,-0.4 -6.9,-0.8 -7,-4.4 0,-3.4 3.3,-5 6.8,-5 3.7,0 6.9,1.6 6.8,4.8 h -3.2 c 0,-1.6 -1.9,-2.1 -3.6,-2.1 -1.7,0 -3.4,0.8 -3.3,2.2 0,1.3 1.3,1.6 3.8,1.9 3.3,0.4 6.6,1 6.6,4.8 0,3.5 -3.4,5.1 -6.9,5.1 -3.5,0 -7,-1.1 -7.3,-5.1 h 3.5 z" />

        <path d="m 205.3,439.3 v -9.4 c 0,-2.6 -1.5,-4 -3.7,-4 -2.3,0 -4.1,1.6 -4.1,4.2 v 9.2 h -3.6 v -24.2 h 3.6 v 10.2 c 1.4,-1.8 3,-2.3 5.1,-2.3 4.4,0 6.3,2.8 6.3,6.9 v 9.4 z" />

        <path d="m 213.1,437.6 c 0,-1.3 1,-2.1 2.2,-2.1 1.2,0 2.2,0.8 2.2,2.1 0,1.2 -1,2.1 -2.2,2.1 -1.2,0 -2.2,-0.8 -2.2,-2.1 z" />

        <path d="m 230.9,422.9 c 4.7,0 7.2,3.9 7.2,8.3 0,5.1 -3.7,8.4 -8,8.2 -1.3,-0.1 -2.7,-0.5 -4,-1.3 v 9.3 h -3.6 v -19.1 c 0,-1.9 0.2,-2.7 -1.7,-2.7 v -2.5 c 2.6,-0.5 4.7,-0.1 4.7,2.7 0.9,-2.1 3.2,-2.9 5.4,-2.9 z m -4.8,12.1 c 1.3,0.9 2.8,1.4 4.1,1.3 2.4,-0.1 4.4,-1.9 4.4,-5.1 0,-2.6 -1.4,-5.1 -4.3,-5.1 -2.5,0 -4.1,2.1 -4.1,4.4 v 4.5 z" />

        <path d="m 250.5,422.8 c 1.3,0 2.6,0.4 3.7,1.1 l -0.9,3.1 c -1,-0.6 -2,-1 -3.2,-1 -2.2,0 -4.1,1.4 -4.1,4 v 9.2 h -3.6 v -11.6 c 0,-1.4 0,-2.2 -1.7,-2.1 v -2.4 c 2.3,-0.5 4.9,-0.1 5.1,2.4 0.6,-1.7 2.7,-2.7 4.7,-2.7 z" />

        <path d="m 263.8,439.6 c -4.2,0 -8.4,-2.8 -8.4,-8.3 0,-5.5 4.1,-8.2 8.3,-8.3 4.3,-0.1 8.6,2.7 8.6,8.3 -0.1,5.5 -4.3,8.3 -8.5,8.3 z m 0.1,-3.2 c 2.4,0 4.8,-1.8 4.8,-5.2 0,-3.5 -2.5,-5.2 -5,-5.1 -2.4,0.1 -4.7,1.8 -4.7,5.1 0,3.5 2.4,5.3 4.9,5.2 z" />

    </g>

    <g id="icon" fill="#bac4e2">

        <path d="m 41.1,25.9 c 0.3,-1.3 0.4,-2.6 0.4,-3.9 0,-2.3 -0.4,-4.4 -1.1,-6.5 0.5,-0.4 0.8,-1 0.8,-1.7 0,-1.2 -1,-2.2 -2.2,-2.2 -0.1,0 -0.3,0 -0.4,0 C 37,8.9 34.8,6.7 32.3,5 32.4,4.8 32.4,4.6 32.4,4.4 32.4,3.2 31.4,2.1 30.1,2.1 29.4,2.1 28.8,2.4 28.3,3 26,2.1 23.6,1.6 21,1.6 20.1,1.6 19.3,1.7 18.5,1.8 18.1,0.8 17.1,0 15.9,0 c -1.5,0 -2.8,1.2 -2.8,2.8 0,0.2 0,0.3 0,0.5 -4.7,2 -8.5,5.6 -10.7,10.2 0,0 -0.1,0 -0.1,0 -1.3,0 -2.3,1 -2.3,2.3 0,0.8 0.4,1.5 1,1.9 -0.3,1.4 -0.5,2.9 -0.5,4.5 0,2.7 0.5,5.2 1.5,7.5 -0.4,0.4 -0.6,1 -0.6,1.6 0,1.2 1,2.2 2.3,2.2 0.1,0 0.3,0 0.4,0 1.3,1.9 2.8,3.5 4.6,4.9 -0.1,0.3 -0.2,0.6 -0.2,0.9 0,1.5 1.2,2.8 2.8,2.8 0.9,0 1.6,-0.4 2.1,-1 2.4,1 4.9,1.5 7.7,1.5 2.3,0 4.4,-0.4 6.5,-1.1 0.7,0.6 1.6,1 2.7,1 2.2,0 4,-1.8 4,-4 0,-0.3 0,-0.5 -0.1,-0.7 2.1,-1.8 3.9,-3.9 5.1,-6.4 0.2,0 0.4,0.1 0.6,0.1 1.6,0 2.9,-1.3 2.9,-2.9 -0.1,-1.3 -0.8,-2.2 -1.7,-2.7 z m -1,-3.9 c 0,1.2 -0.1,2.4 -0.4,3.6 -1.2,0 -2.2,0.8 -2.7,1.8 l -3.9,-1 c 0,0 0,0 0,0 0,-0.5 -0.2,-1 -0.5,-1.4 l 5.9,-9.1 c 0.1,0 0.3,0 0.4,0 0.1,0 0.1,0 0.1,0 0.8,2 1.1,4 1.1,6.1 z M 27.5,35.5 22,32.3 c 0.1,-0.3 0.2,-0.7 0.2,-1.1 0,-0.2 0,-0.3 0,-0.4 l 7.1,-2.9 c 0.2,0.2 0.5,0.4 0.8,0.6 l -0.4,6 c -0.9,0.1 -1.6,0.5 -2.2,1 z m -14.9,1.2 c -0.2,-0.1 -0.5,-0.2 -0.8,-0.3 l 0.4,-10.6 c 0.3,-0.1 0.7,-0.2 1,-0.4 l 3.9,4.3 c -0.3,0.4 -0.4,0.9 -0.4,1.4 0,0.4 0.1,0.7 0.2,1 z M 4.8,15.6 11.4,13.3 c 0.2,0.3 0.5,0.5 0.8,0.6 l -0.7,6.5 c -0.6,0 -1.1,0.3 -1.5,0.6 L 4.5,16.5 c 0.2,-0.3 0.3,-0.6 0.3,-0.9 0,0 0,0 0,0 z M 15.9,5.4 c 0.4,0 0.8,-0.1 1.1,-0.2 l 5.4,5.9 c -0.2,0.3 -0.4,0.6 -0.5,1 L 15.1,11.5 C 15,10.9 14.7,10.3 14.2,10 l 1.4,-4.6 c 0.2,0 0.3,0 0.3,0 z m 20.9,8.9 c 0.1,0.4 0.3,0.7 0.6,1 l -5.8,8.9 c -0.2,-0.1 -0.4,-0.1 -0.7,-0.1 -0.1,0 -0.2,0 -0.3,0 l -4,-9.1 c 0.4,-0.4 0.8,-0.8 0.9,-1.4 z M 19.5,28.4 c -0.5,0 -1,0.2 -1.4,0.4 l -4,-4.4 c 0,-0.1 0.1,-0.1 0.1,-0.2 l 14.5,2.4 c 0,0 0,0 0,0 l -7,2.8 c -0.5,-0.5 -1.3,-1 -2.2,-1 z m -7.7,-3.9 c -0.8,0 -1.4,-0.6 -1.4,-1.4 0,-0.8 0.6,-1.4 1.4,-1.4 0.8,0 1.4,0.6 1.4,1.4 -0.1,0.8 -0.7,1.4 -1.4,1.4 z M 13.5,14.1 C 14.2,14 14.7,13.5 15,12.9 l 6.9,0.6 c 0,0.2 0.1,0.4 0.2,0.6 L 13.3,21 C 13.1,20.9 13,20.8 12.8,20.7 Z m 1,8.9 c 0,-0.3 -0.1,-0.7 -0.2,-1 l 8.8,-6.9 c 0.5,0.4 1.1,0.6 1.8,0.6 0.2,0 0.4,0 0.6,-0.1 l 4,9.1 c -0.2,0.2 -0.4,0.4 -0.5,0.6 z M 26.4,12.8 c 0,0.9 -0.7,1.5 -1.5,1.5 -0.9,0 -1.5,-0.7 -1.5,-1.5 0,-0.9 0.7,-1.5 1.5,-1.5 0.8,0 1.5,0.7 1.5,1.5 z M 13,11 c 0.5,0 0.9,0.4 0.9,0.9 0,0.5 -0.4,0.9 -0.9,0.9 -0.5,0 -0.9,-0.4 -0.9,-0.9 0,-0.5 0.4,-0.9 0.9,-0.9 z m 5.1,20.2 c 0,-0.8 0.6,-1.4 1.4,-1.4 0.8,0 1.4,0.6 1.4,1.4 0,0.8 -0.6,1.4 -1.4,1.4 -0.8,0 -1.4,-0.6 -1.4,-1.4 z m 12.8,-3.9 c -0.5,0 -0.9,-0.4 -0.9,-0.9 0,-0.5 0.4,-0.9 0.9,-0.9 0.5,0 0.9,0.4 0.9,0.9 0,0.5 -0.4,0.9 -0.9,0.9 z m 9,-13.5 c 0,0.5 -0.4,0.9 -0.9,0.9 -0.5,0 -0.9,-0.4 -0.9,-0.9 0,-0.5 0.4,-0.9 0.9,-0.9 0.5,0 0.9,0.4 0.9,0.9 z M 37.4,12.2 C 37.2,12.4 37,12.7 36.9,13 l -9.3,-0.6 c -0.1,-0.6 -0.4,-1.1 -0.7,-1.5 l 2.7,-4.4 c 0.2,0 0.3,0.1 0.5,0.1 0.5,0 1,-0.2 1.4,-0.5 2.4,1.5 4.4,3.6 5.9,6.1 z M 30.1,3.4 c 0.5,0 0.9,0.4 0.9,0.9 0,0.5 -0.4,0.9 -0.9,0.9 -0.5,0 -0.9,-0.4 -0.9,-0.9 0,-0.5 0.4,-0.9 0.9,-0.9 z m -2.2,0.8 c 0,0 0,0.1 0,0 0,0.7 0.2,1.2 0.6,1.6 l -2.7,4.3 C 25.5,10 25.2,9.9 24.8,9.9 24.3,9.9 23.9,10 23.5,10.2 L 18.1,4.3 c 0.3,-0.4 0.5,-0.8 0.6,-1.3 0.8,-0.1 1.6,-0.2 2.4,-0.2 2.4,0.1 4.7,0.6 6.8,1.4 z m -12,-2.9 c 0.8,0 1.4,0.6 1.4,1.4 0,0.8 -0.6,1.4 -1.4,1.4 -0.8,0 -1.4,-0.6 -1.4,-1.4 0,-0.8 0.7,-1.4 1.4,-1.4 z M 13.8,4.4 C 14,4.6 14.2,4.9 14.5,5 l -1.4,4.6 c 0,0 0,0 0,0 -1.2,0 -2.2,1 -2.2,2.3 0,0.1 0,0.2 0,0.2 L 4.4,14.3 C 4.3,14.1 4.1,13.9 3.9,13.8 5.9,9.5 9.4,6.2 13.8,4.4 Z M 2.5,14.7 c 0.5,0 1,0.4 1,1 0,0.5 -0.4,1 -1,1 -0.6,0 -1,-0.4 -1,-1 0,-0.6 0.4,-1 1,-1 z m -0.1,3.2 c 0,0 0,0 0,0 0.5,0 1,-0.1 1.3,-0.4 l 5.5,4.6 c -0.1,0.3 -0.2,0.7 -0.2,1 0,0.5 0.2,1 0.4,1.5 L 4.8,29.1 C 4.5,28.9 4.1,28.8 3.6,28.8 c -0.1,0 -0.3,0 -0.4,0 -0.8,-2.1 -1.3,-4.4 -1.3,-6.9 0,-1.3 0.2,-2.7 0.5,-4 z M 2.8,31 c 0,-0.5 0.4,-0.9 0.9,-0.9 0.5,0 0.9,0.4 0.9,0.9 0,0.5 -0.4,0.9 -0.9,0.9 C 3.2,32 2.8,31.5 2.8,31 Z m 2.5,1.6 C 5.7,32.2 6,31.6 6,31 6,30.7 5.9,30.4 5.8,30.1 l 4.7,-4.6 c 0.1,0.1 0.3,0.1 0.4,0.2 L 10.5,36.4 C 10.1,36.5 9.7,36.7 9.4,37 7.8,35.8 6.4,34.3 5.3,32.6 Z m 6,7.9 c -0.8,0 -1.4,-0.6 -1.4,-1.4 0,-0.8 0.6,-1.4 1.4,-1.4 0.8,0 1.4,0.6 1.4,1.4 0,0.8 -0.6,1.4 -1.4,1.4 z M 14,39.7 c 0,-0.2 0.1,-0.4 0.1,-0.6 0,-0.5 -0.2,-1 -0.4,-1.5 l 4.1,-4.3 c 0.5,0.4 1.1,0.7 1.8,0.7 0.7,0 1.2,-0.2 1.7,-0.6 l 5.5,3.3 c -0.3,0.5 -0.4,1.1 -0.4,1.8 0,0.6 0.2,1.2 0.4,1.8 -1.8,0.6 -3.7,0.9 -5.6,0.9 -2.7,-0.1 -5,-0.6 -7.2,-1.5 z M 30.2,41 c -1.4,0 -2.6,-1.2 -2.6,-2.6 0,-1.4 1.2,-2.6 2.6,-2.6 1.4,0 2.6,1.2 2.6,2.6 0,1.4 -1.2,2.6 -2.6,2.6 z m 3.3,-4.7 C 32.9,35.4 32.1,34.7 31,34.5 l 0.4,-6 c 0.5,-0.1 1,-0.4 1.3,-0.9 l 4.2,1 c 0.1,0.8 0.5,1.5 1,2 -1,2.2 -2.5,4.2 -4.4,5.7 z M 39.8,30 c -0.9,0 -1.5,-0.7 -1.5,-1.5 0,-0.8 0.7,-1.6 1.5,-1.6 0.8,0 1.5,0.7 1.5,1.6 0,0.9 -0.7,1.5 -1.5,1.5 z" />

    </g>

 </svg>